<svg t="1722306494874" class="icon" viewBox="0 0 1024 1024" version="1.1" xmlns="http://www.w3.org/2000/svg" p-id="2718" width="200" height="200"><path d="M178.090667 293.184c-1.28 13.546667-3.882667 42.474667-3.882667 60.885333v47.36c0 35.541333-23.381333 66.261333-67.541333 68.693334v83.754666c44.16 2.432 67.541333 33.152 67.541333 68.693334v26.005333c0 18.410667 2.602667 68.714667 3.904 82.261333 5.184 51.52 22.058667 125.141333 111.658667 164.416C315.52 906.453333 346.453333 917.333333 374.741333 917.333333v-102.976c-7.402667 0-25.728-6.826667-35.626666-13.568-40.256-28.224-48.042667-87.146667-48.042667-120.277333v-44.437333c0-41.706667-3.904-94.442667-61.013333-115.349334v-17.450666c57.088-20.864 61.013333-73.664 61.013333-115.306667v-44.458667c0-33.152 7.786667-92.074667 48.042667-120.298666 9.898667-6.741333 28.245333-13.568 35.626666-13.568V106.666667c-28.288 0-59.221333 10.965333-84.970666 22.08-89.6 39.274667-106.474667 112.896-111.68 164.437333z" fill="#2A6AFF" p-id="2719"></path><path d="M917.312 495.68c0-55.232 1.28-103.082667-13.013333-162.005333-15.573333-61.333333-40.192-101.845333-81.792-137.429334-33.536-28.970667-76.864-52.8-126.314667-68.544-42.176-13.44-86.4-19.093333-130.624-19.093333h-33.664v104.021333h37.909333c37.973333 0 75.882667 7.018667 110.293334 23.125334 38.912 18.282667 69.013333 44.309333 86.549333 72.170666 23.381333 36.8 33.770667 90.816 33.770667 163.2v83.690667c0 72.405333-10.389333 126.4-33.770667 163.2-17.536 27.861333-47.637333 53.909333-86.549333 72.106667-34.410667 16.149333-72.32 23.146667-110.293334 23.146666h-37.909333V917.333333h33.664c44.224 0 88.448-5.653333 130.624-19.093333 49.450667-15.765333 92.736-39.616 126.293333-68.544 41.578667-35.541333 66.24-76.074667 81.834667-137.429333 14.293333-58.901333 12.992-106.773333 12.992-161.984v-34.602667z" fill="#00D6B9" p-id="2720"></path></svg>